<mxfile host="Electron" modified="2024-12-16T10:52:59.882Z" agent="Mozilla/5.0 (Windows NT 10.0; Win64; x64) AppleWebKit/537.36 (KHTML, like Gecko) draw.io/23.0.2 Chrome/120.0.6099.109 Electron/28.1.0 Safari/537.36" etag="lodoREc9frRwWEuWP47T" version="23.0.2" type="device">
  <diagram name="pko-ind" id="ubab55Ux_yBIpRZZqgyT">
    <mxGraphModel dx="2294" dy="2029" grid="1" gridSize="10" guides="1" tooltips="1" connect="1" arrows="1" fold="1" page="1" pageScale="1" pageWidth="850" pageHeight="1100" math="0" shadow="0">
      <root>
        <mxCell id="0" />
        <mxCell id="1" parent="0" />
        <mxCell id="2" value="prov:Agent" style="rounded=0;whiteSpace=wrap;html=1;snapToPoint=1;points=[[0.1,0],[0.2,0],[0.3,0],[0.4,0],[0.5,0],[0.6,0],[0.7,0],[0.8,0],[0.9,0],[0,0.1],[0,0.3],[0,0.5],[0,0.7],[0,0.9],[0.1,1],[0.2,1],[0.3,1],[0.4,1],[0.5,1],[0.6,1],[0.7,1],[0.8,1],[0.9,1],[1,0.1],[1,0.3],[1,0.5],[1,0.7],[1,0.9]];fillColor=#d0cee2;strokeColor=#56517e;" parent="1" vertex="1">
          <mxGeometry x="211" y="90" width="100" height="30" as="geometry" />
        </mxCell>
        <mxCell id="3" value="pko-ind:Machine" style="rounded=0;whiteSpace=wrap;html=1;snapToPoint=1;points=[[0.1,0],[0.2,0],[0.3,0],[0.4,0],[0.5,0],[0.6,0],[0.7,0],[0.8,0],[0.9,0],[0,0.1],[0,0.3],[0,0.5],[0,0.7],[0,0.9],[0.1,1],[0.2,1],[0.3,1],[0.4,1],[0.5,1],[0.6,1],[0.7,1],[0.8,1],[0.9,1],[1,0.1],[1,0.3],[1,0.5],[1,0.7],[1,0.9]];fillColor=#f5f5f5;strokeColor=#666666;fontColor=#333333;" parent="1" vertex="1">
          <mxGeometry x="-99" y="140" width="130" height="30" as="geometry" />
        </mxCell>
        <mxCell id="4" value="" style="endArrow=classic;html=1;exitX=0.9;exitY=0;exitDx=0;exitDy=0;endSize=8;arcSize=0;rounded=0;edgeStyle=orthogonalEdgeStyle;entryX=0;entryY=0.5;entryDx=0;entryDy=0;fillColor=#e51400;strokeColor=#000000;" parent="1" source="3" target="2" edge="1">
          <mxGeometry width="50" height="50" relative="1" as="geometry">
            <mxPoint x="421" y="221" as="sourcePoint" />
            <mxPoint x="458" y="330" as="targetPoint" />
            <Array as="points">
              <mxPoint x="18" y="105" />
            </Array>
          </mxGeometry>
        </mxCell>
        <mxCell id="5" value="&lt;div&gt;pko-ind:wasManufacturedBy&lt;/div&gt;" style="edgeLabel;html=1;align=center;verticalAlign=middle;resizable=0;points=[];" parent="4" vertex="1" connectable="0">
          <mxGeometry x="-0.1912" y="-1" relative="1" as="geometry">
            <mxPoint x="31" y="-1" as="offset" />
          </mxGeometry>
        </mxCell>
        <mxCell id="6" value="prov:Location" style="rounded=0;whiteSpace=wrap;html=1;snapToPoint=1;points=[[0.1,0],[0.2,0],[0.3,0],[0.4,0],[0.5,0],[0.6,0],[0.7,0],[0.8,0],[0.9,0],[0,0.1],[0,0.3],[0,0.5],[0,0.7],[0,0.9],[0.1,1],[0.2,1],[0.3,1],[0.4,1],[0.5,1],[0.6,1],[0.7,1],[0.8,1],[0.9,1],[1,0.1],[1,0.3],[1,0.5],[1,0.7],[1,0.9]];fillColor=#d0cee2;strokeColor=#56517e;" parent="1" vertex="1">
          <mxGeometry x="201" y="210" width="130" height="30" as="geometry" />
        </mxCell>
        <mxCell id="7" value="pko-ind:Factory" style="rounded=0;whiteSpace=wrap;html=1;snapToPoint=1;points=[[0.1,0],[0.2,0],[0.3,0],[0.4,0],[0.5,0],[0.6,0],[0.7,0],[0.8,0],[0.9,0],[0,0.1],[0,0.3],[0,0.5],[0,0.7],[0,0.9],[0.1,1],[0.2,1],[0.3,1],[0.4,1],[0.5,1],[0.6,1],[0.7,1],[0.8,1],[0.9,1],[1,0.1],[1,0.3],[1,0.5],[1,0.7],[1,0.9]];fillColor=#f5f5f5;strokeColor=#666666;fontColor=#333333;" parent="1" vertex="1">
          <mxGeometry x="201" y="285" width="130" height="30" as="geometry" />
        </mxCell>
        <mxCell id="8" value="" style="endArrow=block;html=1;fontColor=#000099;exitX=0.5;exitY=0;exitDx=0;exitDy=0;endFill=0;endSize=8;arcSize=0;rounded=0;entryX=0.5;entryY=1;entryDx=0;entryDy=0;" parent="1" source="7" target="6" edge="1">
          <mxGeometry width="50" height="50" relative="1" as="geometry">
            <mxPoint x="201" y="484" as="sourcePoint" />
            <mxPoint x="286" y="345" as="targetPoint" />
          </mxGeometry>
        </mxCell>
        <mxCell id="9" value="pko-ind:MachineType" style="rounded=0;whiteSpace=wrap;html=1;snapToPoint=1;points=[[0.1,0],[0.2,0],[0.3,0],[0.4,0],[0.5,0],[0.6,0],[0.7,0],[0.8,0],[0.9,0],[0,0.1],[0,0.3],[0,0.5],[0,0.7],[0,0.9],[0.1,1],[0.2,1],[0.3,1],[0.4,1],[0.5,1],[0.6,1],[0.7,1],[0.8,1],[0.9,1],[1,0.1],[1,0.3],[1,0.5],[1,0.7],[1,0.9]];fillColor=#f5f5f5;strokeColor=#666666;fontColor=#333333;" parent="1" vertex="1">
          <mxGeometry x="41" y="240" width="120" height="30" as="geometry" />
        </mxCell>
        <mxCell id="10" value="" style="endArrow=classic;html=1;exitX=0.9;exitY=1;exitDx=0;exitDy=0;endSize=8;arcSize=0;rounded=0;entryX=0;entryY=0.5;entryDx=0;entryDy=0;edgeStyle=orthogonalEdgeStyle;" parent="1" source="3" target="9" edge="1">
          <mxGeometry width="50" height="50" relative="1" as="geometry">
            <mxPoint x="411" y="211" as="sourcePoint" />
            <mxPoint x="458" y="330" as="targetPoint" />
          </mxGeometry>
        </mxCell>
        <mxCell id="11" value="&lt;div&gt;pko-ind:hasMachineType&lt;/div&gt;" style="edgeLabel;html=1;align=center;verticalAlign=middle;resizable=0;points=[];" parent="10" vertex="1" connectable="0">
          <mxGeometry x="-0.1912" y="-1" relative="1" as="geometry">
            <mxPoint x="-2" y="2" as="offset" />
          </mxGeometry>
        </mxCell>
        <mxCell id="12" value="" style="endArrow=classic;html=1;exitX=1;exitY=0.7;exitDx=0;exitDy=0;endSize=8;arcSize=0;rounded=0;edgeStyle=orthogonalEdgeStyle;entryX=0.5;entryY=0;entryDx=0;entryDy=0;dashed=1;" parent="1" source="3" target="6" edge="1">
          <mxGeometry width="50" height="50" relative="1" as="geometry">
            <mxPoint x="201" y="205" as="sourcePoint" />
            <mxPoint x="114" y="330" as="targetPoint" />
            <Array as="points">
              <mxPoint x="266" y="161" />
            </Array>
          </mxGeometry>
        </mxCell>
        <mxCell id="13" value="prov:atLocation" style="edgeLabel;html=1;align=center;verticalAlign=middle;resizable=0;points=[];" parent="12" vertex="1" connectable="0">
          <mxGeometry x="-0.1912" y="-1" relative="1" as="geometry">
            <mxPoint x="16" y="-2" as="offset" />
          </mxGeometry>
        </mxCell>
        <mxCell id="14" value="pko-ind:Device" style="rounded=0;whiteSpace=wrap;html=1;snapToPoint=1;points=[[0.1,0],[0.2,0],[0.3,0],[0.4,0],[0.5,0],[0.6,0],[0.7,0],[0.8,0],[0.9,0],[0,0.1],[0,0.3],[0,0.5],[0,0.7],[0,0.9],[0.1,1],[0.2,1],[0.3,1],[0.4,1],[0.5,1],[0.6,1],[0.7,1],[0.8,1],[0.9,1],[1,0.1],[1,0.3],[1,0.5],[1,0.7],[1,0.9]];fillColor=#f5f5f5;strokeColor=#666666;fontColor=#333333;" parent="1" vertex="1">
          <mxGeometry x="-150" y="240" width="92" height="30" as="geometry" />
        </mxCell>
        <mxCell id="15" value="" style="endArrow=block;html=1;fontColor=#000099;exitX=0.7;exitY=0;exitDx=0;exitDy=0;endFill=0;endSize=8;arcSize=0;rounded=0;entryX=0.1;entryY=1;entryDx=0;entryDy=0;" parent="1" source="14" target="3" edge="1">
          <mxGeometry width="50" height="50" relative="1" as="geometry">
            <mxPoint x="276" y="295" as="sourcePoint" />
            <mxPoint x="276" y="250" as="targetPoint" />
          </mxGeometry>
        </mxCell>
        <mxCell id="16" value="&lt;div&gt;&lt;b&gt;@base:&lt;/b&gt; https://w3id.org/pko/industry#&lt;/div&gt;&lt;div&gt;&lt;b style=&quot;border-color: var(--border-color);&quot;&gt;pko-ind:&lt;/b&gt;&amp;nbsp;https://w3id.org/pko/industry#&lt;/div&gt;&lt;div&gt;&lt;b style=&quot;border-color: var(--border-color);&quot;&gt;pko:&lt;/b&gt;&amp;nbsp;https://w3id.org/pko#&lt;br&gt;&lt;/div&gt;&lt;div&gt;&lt;b&gt;prov:&lt;/b&gt; http://www.w3.org/ns/prov#&lt;/div&gt;&lt;div&gt;&lt;b&gt;dct:&amp;nbsp;&lt;/b&gt;http://purl.org/dc/terms/&lt;/div&gt;&lt;div&gt;&lt;b&gt;schema:&lt;/b&gt; http://schema.org/&amp;nbsp;&lt;/div&gt;" style="shape=note;whiteSpace=wrap;html=1;backgroundOutline=1;darkOpacity=0.05;" parent="1" vertex="1">
          <mxGeometry x="90" y="-330" width="290" height="170" as="geometry" />
        </mxCell>
        <mxCell id="17" value="&lt;div&gt;&lt;b&gt;owl:Ontology: &lt;/b&gt;&amp;lt;https://w3id.org/pko/industry&amp;gt;&lt;/div&gt;&lt;div&gt;&lt;b&gt;&lt;br&gt;&lt;/b&gt;&lt;/div&gt;&lt;div&gt;&lt;b style=&quot;border-color: var(--border-color);&quot;&gt;dc:title:&lt;/b&gt;&amp;nbsp;Industry module of Procedural Knowledge Ontology (PKO)&lt;br&gt;&lt;/div&gt;&lt;div&gt;&lt;/div&gt;&lt;b style=&quot;border-color: var(--border-color);&quot;&gt;rdfs:label:&lt;/b&gt;&amp;nbsp;Industry module of Procedural Knowledge Ontology (PKO)&lt;br&gt;&lt;div&gt;&lt;b&gt;dct:publisher:&lt;/b&gt;&amp;nbsp;Cefriel&lt;br&gt;&lt;/div&gt;&lt;div&gt;&lt;b&gt;&lt;br&gt;&lt;/b&gt;&lt;/div&gt;&lt;div&gt;&lt;b&gt;d&lt;/b&gt;&lt;b&gt;c:creator:&lt;/b&gt;&amp;nbsp;Valentina Carriero (Cefriel)&lt;/div&gt;&lt;div&gt;&lt;b style=&quot;border-color: var(--border-color);&quot;&gt;dc:creator:&lt;/b&gt;&amp;nbsp;Mario Scrocca&amp;nbsp;(Cefriel)&lt;br&gt;&lt;/div&gt;&lt;div&gt;&lt;b style=&quot;border-color: var(--border-color);&quot;&gt;dc:contributor:&lt;/b&gt;&amp;nbsp;Irene Celino&amp;nbsp;(Cefriel)&lt;br&gt;&lt;/div&gt;&lt;div&gt;&lt;b style=&quot;border-color: var(--border-color);&quot;&gt;dc:contributor:&lt;/b&gt;&amp;nbsp;Ilaria Baroni&amp;nbsp;(Cefriel)&lt;br&gt;&lt;/div&gt;&lt;div&gt;&lt;b style=&quot;border-color: var(--border-color);&quot;&gt;dc:contributor:&lt;/b&gt;&amp;nbsp;Antonia Azzini&amp;nbsp;(Cefriel)&lt;/div&gt;&lt;div&gt;&lt;b&gt;&lt;br&gt;&lt;/b&gt;&lt;/div&gt;&lt;div&gt;&lt;b&gt;owl:versionInfo:&lt;/b&gt; 0.0.1&lt;/div&gt;&lt;div&gt;&lt;br&gt;&lt;/div&gt;&lt;div&gt;&lt;div style=&quot;border-color: var(--border-color);&quot;&gt;&lt;b style=&quot;border-color: var(--border-color);&quot;&gt;dct:license: &lt;/b&gt;&lt;span style=&quot;border-color: var(--border-color);&quot;&gt;&amp;lt;&lt;/span&gt;https://creativecommons.org/licenses/by/4.0/&amp;gt;&lt;/div&gt;&lt;/div&gt;&lt;div style=&quot;border-color: var(--border-color);&quot;&gt;&lt;br&gt;&lt;/div&gt;&lt;div style=&quot;border-color: var(--border-color);&quot;&gt;&lt;b&gt;schema:funding:&amp;nbsp;&lt;/b&gt;&amp;lt;https://doi.org/10.3030/101120323&amp;gt;&lt;br&gt;&lt;/div&gt;&lt;div&gt;&lt;/div&gt;" style="shape=document;whiteSpace=wrap;html=1;boundedLbl=1;labelBackgroundColor=#ffffff;strokeColor=#000000;fontSize=12;fontColor=#000000;size=0.05555555555555555;" parent="1" vertex="1">
          <mxGeometry x="-300" y="-330" width="350" height="360" as="geometry" />
        </mxCell>
        <mxCell id="bE9VukkEBEnT0LYbL1oF-17" value="pko-ind:PersonalProtectiveEquipment" style="rounded=0;whiteSpace=wrap;html=1;snapToPoint=1;points=[[0.1,0],[0.2,0],[0.3,0],[0.4,0],[0.5,0],[0.6,0],[0.7,0],[0.8,0],[0.9,0],[0,0.1],[0,0.3],[0,0.5],[0,0.7],[0,0.9],[0.1,1],[0.2,1],[0.3,1],[0.4,1],[0.5,1],[0.6,1],[0.7,1],[0.8,1],[0.9,1],[1,0.1],[1,0.3],[1,0.5],[1,0.7],[1,0.9]];fillColor=#f5f5f5;strokeColor=#666666;fontColor=#333333;" parent="1" vertex="1">
          <mxGeometry x="-285" y="340" width="210" height="30" as="geometry" />
        </mxCell>
        <mxCell id="bE9VukkEBEnT0LYbL1oF-18" value="&lt;u&gt;pko-ind:Gloves&lt;/u&gt;" style="rounded=0;whiteSpace=wrap;html=1;snapToPoint=1;points=[[0.1,0],[0.2,0],[0.3,0],[0.4,0],[0.5,0],[0.6,0],[0.7,0],[0.8,0],[0.9,0],[0,0.1],[0,0.3],[0,0.5],[0,0.7],[0,0.9],[0.1,1],[0.2,1],[0.3,1],[0.4,1],[0.5,1],[0.6,1],[0.7,1],[0.8,1],[0.9,1],[1,0.1],[1,0.3],[1,0.5],[1,0.7],[1,0.9]];" parent="1" vertex="1">
          <mxGeometry x="-285" y="370" width="210" height="30" as="geometry" />
        </mxCell>
        <mxCell id="bE9VukkEBEnT0LYbL1oF-19" value="&lt;u style=&quot;border-color: var(--border-color);&quot;&gt;pko-ind&lt;/u&gt;&lt;u&gt;:BumpCap&lt;/u&gt;" style="rounded=0;whiteSpace=wrap;html=1;snapToPoint=1;points=[[0.1,0],[0.2,0],[0.3,0],[0.4,0],[0.5,0],[0.6,0],[0.7,0],[0.8,0],[0.9,0],[0,0.1],[0,0.3],[0,0.5],[0,0.7],[0,0.9],[0.1,1],[0.2,1],[0.3,1],[0.4,1],[0.5,1],[0.6,1],[0.7,1],[0.8,1],[0.9,1],[1,0.1],[1,0.3],[1,0.5],[1,0.7],[1,0.9]];" parent="1" vertex="1">
          <mxGeometry x="-285" y="400" width="210" height="30" as="geometry" />
        </mxCell>
        <mxCell id="bE9VukkEBEnT0LYbL1oF-20" value="&lt;u style=&quot;border-color: var(--border-color);&quot;&gt;pko-ind&lt;/u&gt;&lt;u&gt;:HardHat&lt;/u&gt;" style="rounded=0;whiteSpace=wrap;html=1;snapToPoint=1;points=[[0.1,0],[0.2,0],[0.3,0],[0.4,0],[0.5,0],[0.6,0],[0.7,0],[0.8,0],[0.9,0],[0,0.1],[0,0.3],[0,0.5],[0,0.7],[0,0.9],[0.1,1],[0.2,1],[0.3,1],[0.4,1],[0.5,1],[0.6,1],[0.7,1],[0.8,1],[0.9,1],[1,0.1],[1,0.3],[1,0.5],[1,0.7],[1,0.9]];" parent="1" vertex="1">
          <mxGeometry x="-285" y="430" width="210" height="30" as="geometry" />
        </mxCell>
        <mxCell id="bE9VukkEBEnT0LYbL1oF-21" value="&lt;u style=&quot;border-color: var(--border-color);&quot;&gt;pko-ind&lt;/u&gt;&lt;u&gt;:Sleeves&lt;/u&gt;" style="rounded=0;whiteSpace=wrap;html=1;snapToPoint=1;points=[[0.1,0],[0.2,0],[0.3,0],[0.4,0],[0.5,0],[0.6,0],[0.7,0],[0.8,0],[0.9,0],[0,0.1],[0,0.3],[0,0.5],[0,0.7],[0,0.9],[0.1,1],[0.2,1],[0.3,1],[0.4,1],[0.5,1],[0.6,1],[0.7,1],[0.8,1],[0.9,1],[1,0.1],[1,0.3],[1,0.5],[1,0.7],[1,0.9]];" parent="1" vertex="1">
          <mxGeometry x="-285" y="460" width="210" height="30" as="geometry" />
        </mxCell>
        <mxCell id="bE9VukkEBEnT0LYbL1oF-22" value="&lt;u style=&quot;border-color: var(--border-color);&quot;&gt;pko-ind&lt;/u&gt;&lt;u&gt;:SafetyShoes&lt;/u&gt;" style="rounded=0;whiteSpace=wrap;html=1;snapToPoint=1;points=[[0.1,0],[0.2,0],[0.3,0],[0.4,0],[0.5,0],[0.6,0],[0.7,0],[0.8,0],[0.9,0],[0,0.1],[0,0.3],[0,0.5],[0,0.7],[0,0.9],[0.1,1],[0.2,1],[0.3,1],[0.4,1],[0.5,1],[0.6,1],[0.7,1],[0.8,1],[0.9,1],[1,0.1],[1,0.3],[1,0.5],[1,0.7],[1,0.9]];" parent="1" vertex="1">
          <mxGeometry x="-285" y="490" width="210" height="30" as="geometry" />
        </mxCell>
        <mxCell id="bE9VukkEBEnT0LYbL1oF-23" value="&lt;u style=&quot;border-color: var(--border-color);&quot;&gt;pko-ind&lt;/u&gt;&lt;u&gt;:HearingProtection&lt;/u&gt;" style="rounded=0;whiteSpace=wrap;html=1;snapToPoint=1;points=[[0.1,0],[0.2,0],[0.3,0],[0.4,0],[0.5,0],[0.6,0],[0.7,0],[0.8,0],[0.9,0],[0,0.1],[0,0.3],[0,0.5],[0,0.7],[0,0.9],[0.1,1],[0.2,1],[0.3,1],[0.4,1],[0.5,1],[0.6,1],[0.7,1],[0.8,1],[0.9,1],[1,0.1],[1,0.3],[1,0.5],[1,0.7],[1,0.9]];" parent="1" vertex="1">
          <mxGeometry x="-285" y="520" width="210" height="30" as="geometry" />
        </mxCell>
        <mxCell id="bE9VukkEBEnT0LYbL1oF-24" value="" style="endArrow=classic;html=1;endSize=8;arcSize=0;rounded=0;entryX=1;entryY=0.5;entryDx=0;entryDy=0;exitX=0;exitY=0.5;exitDx=0;exitDy=0;edgeStyle=orthogonalEdgeStyle;" parent="1" source="bE9VukkEBEnT0LYbL1oF-28" target="bE9VukkEBEnT0LYbL1oF-17" edge="1">
          <mxGeometry width="50" height="50" relative="1" as="geometry">
            <mxPoint x="-5" y="556" as="sourcePoint" />
            <mxPoint x="255" y="365" as="targetPoint" />
          </mxGeometry>
        </mxCell>
        <mxCell id="bE9VukkEBEnT0LYbL1oF-25" value="&lt;div&gt;pko-ind:requiresPPE&lt;/div&gt;" style="edgeLabel;html=1;align=center;verticalAlign=middle;resizable=0;points=[];" parent="bE9VukkEBEnT0LYbL1oF-24" vertex="1" connectable="0">
          <mxGeometry x="-0.1912" y="-1" relative="1" as="geometry">
            <mxPoint x="24" y="-11" as="offset" />
          </mxGeometry>
        </mxCell>
        <mxCell id="bE9VukkEBEnT0LYbL1oF-26" value="&lt;u style=&quot;border-color: var(--border-color);&quot;&gt;pko-ind&lt;/u&gt;&lt;u&gt;:SafetyGlasses&lt;/u&gt;" style="rounded=0;whiteSpace=wrap;html=1;snapToPoint=1;points=[[0.1,0],[0.2,0],[0.3,0],[0.4,0],[0.5,0],[0.6,0],[0.7,0],[0.8,0],[0.9,0],[0,0.1],[0,0.3],[0,0.5],[0,0.7],[0,0.9],[0.1,1],[0.2,1],[0.3,1],[0.4,1],[0.5,1],[0.6,1],[0.7,1],[0.8,1],[0.9,1],[1,0.1],[1,0.3],[1,0.5],[1,0.7],[1,0.9]];" parent="1" vertex="1">
          <mxGeometry x="-285" y="550" width="210" height="30" as="geometry" />
        </mxCell>
        <mxCell id="bE9VukkEBEnT0LYbL1oF-27" value="&lt;u style=&quot;border-color: var(--border-color);&quot;&gt;pko-ind&lt;/u&gt;&lt;u&gt;:Harness&lt;/u&gt;" style="rounded=0;whiteSpace=wrap;html=1;snapToPoint=1;points=[[0.1,0],[0.2,0],[0.3,0],[0.4,0],[0.5,0],[0.6,0],[0.7,0],[0.8,0],[0.9,0],[0,0.1],[0,0.3],[0,0.5],[0,0.7],[0,0.9],[0.1,1],[0.2,1],[0.3,1],[0.4,1],[0.5,1],[0.6,1],[0.7,1],[0.8,1],[0.9,1],[1,0.1],[1,0.3],[1,0.5],[1,0.7],[1,0.9]];" parent="1" vertex="1">
          <mxGeometry x="-285" y="580" width="210" height="30" as="geometry" />
        </mxCell>
        <mxCell id="bE9VukkEBEnT0LYbL1oF-28" value="pko:Step" style="rounded=0;whiteSpace=wrap;html=1;snapToPoint=1;points=[[0.1,0],[0.2,0],[0.3,0],[0.4,0],[0.5,0],[0.6,0],[0.7,0],[0.8,0],[0.9,0],[0,0.1],[0,0.3],[0,0.5],[0,0.7],[0,0.9],[0.1,1],[0.2,1],[0.3,1],[0.4,1],[0.5,1],[0.6,1],[0.7,1],[0.8,1],[0.9,1],[1,0.1],[1,0.3],[1,0.5],[1,0.7],[1,0.9]];fillColor=#b0e3e6;strokeColor=#0e8088;" parent="1" vertex="1">
          <mxGeometry x="10" y="430" width="210" height="30" as="geometry" />
        </mxCell>
        <mxCell id="bE9VukkEBEnT0LYbL1oF-29" value="pko-ind:Padlock" style="rounded=0;whiteSpace=wrap;html=1;snapToPoint=1;points=[[0.1,0],[0.2,0],[0.3,0],[0.4,0],[0.5,0],[0.6,0],[0.7,0],[0.8,0],[0.9,0],[0,0.1],[0,0.3],[0,0.5],[0,0.7],[0,0.9],[0.1,1],[0.2,1],[0.3,1],[0.4,1],[0.5,1],[0.6,1],[0.7,1],[0.8,1],[0.9,1],[1,0.1],[1,0.3],[1,0.5],[1,0.7],[1,0.9]];fillColor=#f5f5f5;strokeColor=#666666;fontColor=#333333;" parent="1" vertex="1">
          <mxGeometry x="290" y="340" width="210" height="30" as="geometry" />
        </mxCell>
        <mxCell id="bE9VukkEBEnT0LYbL1oF-30" value="&lt;u style=&quot;border-color: var(--border-color);&quot;&gt;pko-ind&lt;/u&gt;&lt;u&gt;:StandardPadlock&lt;/u&gt;" style="rounded=0;whiteSpace=wrap;html=1;snapToPoint=1;points=[[0.1,0],[0.2,0],[0.3,0],[0.4,0],[0.5,0],[0.6,0],[0.7,0],[0.8,0],[0.9,0],[0,0.1],[0,0.3],[0,0.5],[0,0.7],[0,0.9],[0.1,1],[0.2,1],[0.3,1],[0.4,1],[0.5,1],[0.6,1],[0.7,1],[0.8,1],[0.9,1],[1,0.1],[1,0.3],[1,0.5],[1,0.7],[1,0.9]];" parent="1" vertex="1">
          <mxGeometry x="290" y="370" width="210" height="30" as="geometry" />
        </mxCell>
        <mxCell id="bE9VukkEBEnT0LYbL1oF-31" value="" style="endArrow=classic;html=1;endSize=8;arcSize=0;rounded=0;entryX=0;entryY=0.5;entryDx=0;entryDy=0;exitX=1;exitY=0.5;exitDx=0;exitDy=0;edgeStyle=orthogonalEdgeStyle;" parent="1" source="bE9VukkEBEnT0LYbL1oF-28" target="bE9VukkEBEnT0LYbL1oF-29" edge="1">
          <mxGeometry width="50" height="50" relative="1" as="geometry">
            <mxPoint x="250" y="556" as="sourcePoint" />
            <mxPoint x="400" y="435" as="targetPoint" />
          </mxGeometry>
        </mxCell>
        <mxCell id="bE9VukkEBEnT0LYbL1oF-32" value="&lt;div&gt;pko-ind:requiresPadlock&lt;/div&gt;" style="edgeLabel;html=1;align=center;verticalAlign=middle;resizable=0;points=[];" parent="bE9VukkEBEnT0LYbL1oF-31" vertex="1" connectable="0">
          <mxGeometry x="-0.1912" y="-1" relative="1" as="geometry">
            <mxPoint x="-51" y="-9" as="offset" />
          </mxGeometry>
        </mxCell>
        <mxCell id="bE9VukkEBEnT0LYbL1oF-33" value="&lt;u style=&quot;border-color: var(--border-color);&quot;&gt;pko-ind&lt;/u&gt;&lt;u&gt;:LongPadlock&lt;/u&gt;" style="rounded=0;whiteSpace=wrap;html=1;snapToPoint=1;points=[[0.1,0],[0.2,0],[0.3,0],[0.4,0],[0.5,0],[0.6,0],[0.7,0],[0.8,0],[0.9,0],[0,0.1],[0,0.3],[0,0.5],[0,0.7],[0,0.9],[0.1,1],[0.2,1],[0.3,1],[0.4,1],[0.5,1],[0.6,1],[0.7,1],[0.8,1],[0.9,1],[1,0.1],[1,0.3],[1,0.5],[1,0.7],[1,0.9]];" parent="1" vertex="1">
          <mxGeometry x="290" y="400" width="210" height="30" as="geometry" />
        </mxCell>
        <mxCell id="bE9VukkEBEnT0LYbL1oF-34" value="&lt;u style=&quot;border-color: var(--border-color);&quot;&gt;pko-ind&lt;/u&gt;&lt;u&gt;:PadlockAndChain&lt;/u&gt;" style="rounded=0;whiteSpace=wrap;html=1;snapToPoint=1;points=[[0.1,0],[0.2,0],[0.3,0],[0.4,0],[0.5,0],[0.6,0],[0.7,0],[0.8,0],[0.9,0],[0,0.1],[0,0.3],[0,0.5],[0,0.7],[0,0.9],[0.1,1],[0.2,1],[0.3,1],[0.4,1],[0.5,1],[0.6,1],[0.7,1],[0.8,1],[0.9,1],[1,0.1],[1,0.3],[1,0.5],[1,0.7],[1,0.9]];" parent="1" vertex="1">
          <mxGeometry x="290" y="430" width="210" height="30" as="geometry" />
        </mxCell>
        <mxCell id="bE9VukkEBEnT0LYbL1oF-35" value="&lt;u style=&quot;border-color: var(--border-color);&quot;&gt;pko-ind&lt;/u&gt;&lt;u&gt;:GateValvePadlock&lt;/u&gt;" style="rounded=0;whiteSpace=wrap;html=1;snapToPoint=1;points=[[0.1,0],[0.2,0],[0.3,0],[0.4,0],[0.5,0],[0.6,0],[0.7,0],[0.8,0],[0.9,0],[0,0.1],[0,0.3],[0,0.5],[0,0.7],[0,0.9],[0.1,1],[0.2,1],[0.3,1],[0.4,1],[0.5,1],[0.6,1],[0.7,1],[0.8,1],[0.9,1],[1,0.1],[1,0.3],[1,0.5],[1,0.7],[1,0.9]];" parent="1" vertex="1">
          <mxGeometry x="290" y="460" width="210" height="30" as="geometry" />
        </mxCell>
        <mxCell id="bE9VukkEBEnT0LYbL1oF-36" value="&lt;u style=&quot;border-color: var(--border-color);&quot;&gt;pko-ind&lt;/u&gt;&lt;u&gt;:CablePadlock&lt;/u&gt;" style="rounded=0;whiteSpace=wrap;html=1;snapToPoint=1;points=[[0.1,0],[0.2,0],[0.3,0],[0.4,0],[0.5,0],[0.6,0],[0.7,0],[0.8,0],[0.9,0],[0,0.1],[0,0.3],[0,0.5],[0,0.7],[0,0.9],[0.1,1],[0.2,1],[0.3,1],[0.4,1],[0.5,1],[0.6,1],[0.7,1],[0.8,1],[0.9,1],[1,0.1],[1,0.3],[1,0.5],[1,0.7],[1,0.9]];" parent="1" vertex="1">
          <mxGeometry x="290" y="490" width="210" height="30" as="geometry" />
        </mxCell>
        <mxCell id="bE9VukkEBEnT0LYbL1oF-37" value="&lt;u style=&quot;border-color: var(--border-color);&quot;&gt;pko-ind&lt;/u&gt;&lt;u&gt;:ButterflyValvePadlock&lt;/u&gt;" style="rounded=0;whiteSpace=wrap;html=1;snapToPoint=1;points=[[0.1,0],[0.2,0],[0.3,0],[0.4,0],[0.5,0],[0.6,0],[0.7,0],[0.8,0],[0.9,0],[0,0.1],[0,0.3],[0,0.5],[0,0.7],[0,0.9],[0.1,1],[0.2,1],[0.3,1],[0.4,1],[0.5,1],[0.6,1],[0.7,1],[0.8,1],[0.9,1],[1,0.1],[1,0.3],[1,0.5],[1,0.7],[1,0.9]];" parent="1" vertex="1">
          <mxGeometry x="290" y="520" width="210" height="30" as="geometry" />
        </mxCell>
        <mxCell id="51yXTC4dgRK6P1twPKxk-17" value="pko-ind:EnergySource" style="rounded=0;whiteSpace=wrap;html=1;snapToPoint=1;points=[[0.1,0],[0.2,0],[0.3,0],[0.4,0],[0.5,0],[0.6,0],[0.7,0],[0.8,0],[0.9,0],[0,0.1],[0,0.3],[0,0.5],[0,0.7],[0,0.9],[0.1,1],[0.2,1],[0.3,1],[0.4,1],[0.5,1],[0.6,1],[0.7,1],[0.8,1],[0.9,1],[1,0.1],[1,0.3],[1,0.5],[1,0.7],[1,0.9]];fillColor=#eeeeee;strokeColor=#36393d;" parent="1" vertex="1">
          <mxGeometry x="550" y="315" width="210" height="30" as="geometry" />
        </mxCell>
        <mxCell id="51yXTC4dgRK6P1twPKxk-18" value="&lt;u&gt;pko-ind:ElectricalEnergy&lt;/u&gt;" style="rounded=0;whiteSpace=wrap;html=1;snapToPoint=1;points=[[0.1,0],[0.2,0],[0.3,0],[0.4,0],[0.5,0],[0.6,0],[0.7,0],[0.8,0],[0.9,0],[0,0.1],[0,0.3],[0,0.5],[0,0.7],[0,0.9],[0.1,1],[0.2,1],[0.3,1],[0.4,1],[0.5,1],[0.6,1],[0.7,1],[0.8,1],[0.9,1],[1,0.1],[1,0.3],[1,0.5],[1,0.7],[1,0.9]];" parent="1" vertex="1">
          <mxGeometry x="550" y="345" width="210" height="30" as="geometry" />
        </mxCell>
        <mxCell id="51yXTC4dgRK6P1twPKxk-19" value="&lt;u style=&quot;border-color: var(--border-color);&quot;&gt;pko-ind&lt;/u&gt;&lt;u&gt;:PneumaticEnergy&lt;/u&gt;" style="rounded=0;whiteSpace=wrap;html=1;snapToPoint=1;points=[[0.1,0],[0.2,0],[0.3,0],[0.4,0],[0.5,0],[0.6,0],[0.7,0],[0.8,0],[0.9,0],[0,0.1],[0,0.3],[0,0.5],[0,0.7],[0,0.9],[0.1,1],[0.2,1],[0.3,1],[0.4,1],[0.5,1],[0.6,1],[0.7,1],[0.8,1],[0.9,1],[1,0.1],[1,0.3],[1,0.5],[1,0.7],[1,0.9]];" parent="1" vertex="1">
          <mxGeometry x="550" y="375" width="210" height="30" as="geometry" />
        </mxCell>
        <mxCell id="51yXTC4dgRK6P1twPKxk-20" value="&lt;u style=&quot;border-color: var(--border-color);&quot;&gt;pko-ind&lt;/u&gt;&lt;u&gt;:HydraulicEnergy&lt;/u&gt;" style="rounded=0;whiteSpace=wrap;html=1;snapToPoint=1;points=[[0.1,0],[0.2,0],[0.3,0],[0.4,0],[0.5,0],[0.6,0],[0.7,0],[0.8,0],[0.9,0],[0,0.1],[0,0.3],[0,0.5],[0,0.7],[0,0.9],[0.1,1],[0.2,1],[0.3,1],[0.4,1],[0.5,1],[0.6,1],[0.7,1],[0.8,1],[0.9,1],[1,0.1],[1,0.3],[1,0.5],[1,0.7],[1,0.9]];" parent="1" vertex="1">
          <mxGeometry x="550" y="405" width="210" height="30" as="geometry" />
        </mxCell>
        <mxCell id="51yXTC4dgRK6P1twPKxk-21" value="&lt;u style=&quot;border-color: var(--border-color);&quot;&gt;pko-ind&lt;/u&gt;&lt;u&gt;:WaterEnergy&lt;/u&gt;" style="rounded=0;whiteSpace=wrap;html=1;snapToPoint=1;points=[[0.1,0],[0.2,0],[0.3,0],[0.4,0],[0.5,0],[0.6,0],[0.7,0],[0.8,0],[0.9,0],[0,0.1],[0,0.3],[0,0.5],[0,0.7],[0,0.9],[0.1,1],[0.2,1],[0.3,1],[0.4,1],[0.5,1],[0.6,1],[0.7,1],[0.8,1],[0.9,1],[1,0.1],[1,0.3],[1,0.5],[1,0.7],[1,0.9]];" parent="1" vertex="1">
          <mxGeometry x="550" y="435" width="210" height="30" as="geometry" />
        </mxCell>
        <mxCell id="51yXTC4dgRK6P1twPKxk-22" value="&lt;u style=&quot;border-color: var(--border-color);&quot;&gt;pko-ind&lt;/u&gt;&lt;u&gt;:CoolantEnergy&lt;/u&gt;" style="rounded=0;whiteSpace=wrap;html=1;snapToPoint=1;points=[[0.1,0],[0.2,0],[0.3,0],[0.4,0],[0.5,0],[0.6,0],[0.7,0],[0.8,0],[0.9,0],[0,0.1],[0,0.3],[0,0.5],[0,0.7],[0,0.9],[0.1,1],[0.2,1],[0.3,1],[0.4,1],[0.5,1],[0.6,1],[0.7,1],[0.8,1],[0.9,1],[1,0.1],[1,0.3],[1,0.5],[1,0.7],[1,0.9]];" parent="1" vertex="1">
          <mxGeometry x="550" y="465" width="210" height="30" as="geometry" />
        </mxCell>
        <mxCell id="51yXTC4dgRK6P1twPKxk-23" value="&lt;u style=&quot;border-color: var(--border-color);&quot;&gt;pko-ind&lt;/u&gt;&lt;u&gt;:GravitationalEnergy&lt;/u&gt;" style="rounded=0;whiteSpace=wrap;html=1;snapToPoint=1;points=[[0.1,0],[0.2,0],[0.3,0],[0.4,0],[0.5,0],[0.6,0],[0.7,0],[0.8,0],[0.9,0],[0,0.1],[0,0.3],[0,0.5],[0,0.7],[0,0.9],[0.1,1],[0.2,1],[0.3,1],[0.4,1],[0.5,1],[0.6,1],[0.7,1],[0.8,1],[0.9,1],[1,0.1],[1,0.3],[1,0.5],[1,0.7],[1,0.9]];" parent="1" vertex="1">
          <mxGeometry x="550" y="495" width="210" height="30" as="geometry" />
        </mxCell>
        <mxCell id="51yXTC4dgRK6P1twPKxk-24" value="&lt;u style=&quot;border-color: var(--border-color);&quot;&gt;pko-ind&lt;/u&gt;&lt;u&gt;:ThermalEnergy&lt;/u&gt;" style="rounded=0;whiteSpace=wrap;html=1;snapToPoint=1;points=[[0.1,0],[0.2,0],[0.3,0],[0.4,0],[0.5,0],[0.6,0],[0.7,0],[0.8,0],[0.9,0],[0,0.1],[0,0.3],[0,0.5],[0,0.7],[0,0.9],[0.1,1],[0.2,1],[0.3,1],[0.4,1],[0.5,1],[0.6,1],[0.7,1],[0.8,1],[0.9,1],[1,0.1],[1,0.3],[1,0.5],[1,0.7],[1,0.9]];" parent="1" vertex="1">
          <mxGeometry x="550" y="525" width="210" height="30" as="geometry" />
        </mxCell>
        <mxCell id="51yXTC4dgRK6P1twPKxk-25" value="&lt;u style=&quot;border-color: var(--border-color);&quot;&gt;pko-ind&lt;/u&gt;&lt;u&gt;:GasEnergy&lt;/u&gt;" style="rounded=0;whiteSpace=wrap;html=1;snapToPoint=1;points=[[0.1,0],[0.2,0],[0.3,0],[0.4,0],[0.5,0],[0.6,0],[0.7,0],[0.8,0],[0.9,0],[0,0.1],[0,0.3],[0,0.5],[0,0.7],[0,0.9],[0.1,1],[0.2,1],[0.3,1],[0.4,1],[0.5,1],[0.6,1],[0.7,1],[0.8,1],[0.9,1],[1,0.1],[1,0.3],[1,0.5],[1,0.7],[1,0.9]];" parent="1" vertex="1">
          <mxGeometry x="550" y="555" width="210" height="30" as="geometry" />
        </mxCell>
      </root>
    </mxGraphModel>
  </diagram>
</mxfile>
